# xmcd CD database file
#
# Track frame offsets:
#	150
#	28053
#	40289
#	59058
#	71962
#	87228
#	102014
#
# Disc length: 1481 seconds
#
# Revision: 0
# Processed by: cddbd v1.5.2PL0 Copyright (c) Steve Scherf et al.
# Submitted via: CDex 1.51
#
DISCID=6105c707
DTITLE=Eric Bibb - Spirit I Am - CD2 - Field Recording
DYEAR=2008
DGENRE=Blues
TTITLE0=No More Cane On The Brazos
TTITLE1=Stagolee
TTITLE2=Goodnight Irene
TTITLE3=Bourgeois Blues
TTITLE4=Hold On
TTITLE5=Water
TTITLE6=I Shall Not Be Moved
EXTD=YEAR: 2008
EXTT0=
EXTT1=
EXTT2=
EXTT3=
EXTT4=
EXTT5=
EXTT6=
PLAYORDER=
